:SAMPLES-PER-SECOND 30
:FRAME-RANGE 1-744
:FULLY-SPECIFIED
:DEGREES
489
root  -52.9072 38.2924 104.809 172.01 -73.1481 173.768
RightUpLeg  -2.80444 4.42699 -1.95692
RightLeg  60.9296 1.42966 2.2857
RightFoot  3.44601 -1.36559 10.6774
RightToes  5.82063e-011 0 -3.6325e-017
Spine  11.7923 4.33698 2.16376
Spine1  -0.3599 5.84726 -10.8254
HEad  15.6339 -24.0171 -4.76421
LeftShoulder1  3.17033 -4.28232 -34.6918
LeftArm  19.7581 0.522348 -27.1131
LeftForeArm  -6.46496 -3.36975 -18.9615
LeftHand  -0.89095 -3.1423 12.3404
RightShoulder  9.31685 7.2965 72.2589
RightArm  23.2976 2.9212 -4.43513
RightForeArm  12.0072 0.49649 17.1332
RightHand  1.42911 20.7673 5.77832
LeftUpLeg  9.58761 4.77019 0.354696
LeftLeg  9.45989 -11.0196 0.703877
LeftFoot  -9.51866 0.0579673 -0.0494952
LeftToes  1.25507e-010 -3.78807e-010 5.71421e-011
490
root  -54.1042 38.3948 104.65 169.42 -73.091 176.476
RightUpLeg  -5.16098 2.68615 -1.66512
RightLeg  56.8318 1.79546 2.53062
RightFoot  2.0816 -1.20539 10.3384
RightToes  5.82063e-011 0 -3.6325e-017
Spine  11.6542 3.57385 1.53862
Spine1  -0.553766 4.83195 -9.37829
HEad  15.0664 -25.1761 -4.68309
LeftShoulder1  3.22865 -4.5375 -34.1349
LeftArm  19.2266 -2.9427 -26.7088
LeftForeArm  -5.86952 -4.34405 -18.5685
LeftHand  -1.21151 -4.44971 14.5205
RightShoulder  7.14631 4.78585 72.2163
RightArm  23.6322 0.955833 -4.97261
RightForeArm  11.8222 0.0446247 17.2335
RightHand  1.50828 20.5236 6.18976
LeftUpLeg  12.4159 5.96494 1.76267
LeftLeg  7.88685 -12.3407 0.262426
LeftFoot  -10.2366 0.0523622 0.948435
LeftToes  1.25507e-010 -3.78807e-010 5.71421e-011
491
root  -55.2627 38.4215 104.46 167.589 -72.5761 178.426
RightUpLeg  -7.15912 1.10072 -1.43407
RightLeg  51.4674 1.73884 1.98083
RightFoot  -0.66197 -0.957067 10.166
RightToes  5.82063e-011 0 -3.6325e-017
Spine  11.8304 2.94129 0.94715
Spine1  -0.959578 3.98481 -8.21167
HEad  14.1716 -25.3756 -3.97389
LeftShoulder1  3.24971 -4.68785 -33.6612
LeftArm  22.0076 -6.31986 -25.8687
LeftForeArm  -8.9003 -6.24508 -18.1627
LeftHand  -1.26756 -4.64521 14.8891
RightShoulder  5.42822 2.82785 71.9239
RightArm  24.5054 -1.22679 -5.61792
RightForeArm  11.3303 -0.365167 17.4031
RightHand  1.48595 20.5966 6.07183
LeftUpLeg  15.0797 6.8887 2.88992
LeftLeg  6.60161 -13.0068 0.0354446
LeftFoot  -11.0452 0.0615722 1.85743
LeftToes  1.25507e-010 -3.78807e-010 5.71421e-011
492
root  -56.4046 38.4232 104.242 166.109 -71.4933 -179.876
RightUpLeg  -8.81082 -0.103358 -0.81547
RightLeg  44.8349 0.447486 0.171677
RightFoot  -2.59459 -0.715729 9.10809
RightToes  5.82063e-011 0 -3.6325e-017
Spine  12.0202 2.43294 1.02249
Spine1  -1.36414 3.46511 -7.52601
HEad  13.6474 -25.7739 -3.5296
LeftShoulder1  3.27134 -4.793 -33.4217
LeftArm  22.3181 -9.52683 -24.6676
LeftForeArm  -9.2571 -7.08996 -17.8486
LeftHand  -1.3781 -4.35601 16.6063
RightShoulder  3.68052 0.834775 71.4113
RightArm  25.1129 -2.75711 -5.98562
RightForeArm  11.6575 -1.32008 17.5932
RightHand  1.40945 20.5346 5.74969
LeftUpLeg  17.678 7.42539 3.7204
LeftLeg  5.13518 -12.5565 0.210238
LeftFoot  -11.5954 0.075391 2.57192
LeftToes  1.25507e-010 -3.78807e-010 5.71421e-011
493
root  -57.5187 38.3818 103.98 165.412 -70.1113 -178.821
RightUpLeg  -9.84778 -0.92679 -0.0744278
RightLeg  36.4451 -0.825036 -0.911122
RightFoot  -2.12487 -0.703246 8.52915
RightToes  5.82063e-011 0 -3.6325e-017
Spine  11.9422 1.95409 1.08482
Spine1  -1.4451 3.03306 -7.04589
HEad  12.8441 -25.8146 -3.38812
LeftShoulder1  3.27206 -4.87255 -33.0584
LeftArm  21.2852 -12.14 -23.248
LeftForeArm  -8.97031 -7.45746 -17.6261
LeftHand  -1.35472 -4.81615 15.6264
RightShoulder  2.64546 -0.357763 71.0456
RightArm  26.3666 -4.15337 -6.56828
RightForeArm  11.1251 -2.14765 17.8956
RightHand  1.72106 20.3248 7.19145
LeftUpLeg  20.0637 7.81198 4.33243
LeftLeg  3.80498 -11.638 0.372698
LeftFoot  -12.3787 0.0998121 2.80815
LeftToes  1.25507e-010 -3.78807e-010 5.71421e-011
494
root  -58.6345 38.2869 103.67 165.455 -68.5172 -178.453
RightUpLeg  -9.89898 -1.29046 0.752867
RightLeg  26.1588 -2.03925 -1.31187
RightFoot  -0.691824 -0.711919 7.57638
RightToes  5.82063e-011 0 -3.6325e-017
Spine  11.7126 1.5917 1.16642
Spine1  -1.37384 2.74374 -6.75119
HEad  12.2613 -26.0223 -3.36685
LeftShoulder1  3.29079 -4.97662 -32.8015
LeftArm  19.5119 -14.0527 -21.6968
LeftForeArm  -8.27045 -7.53995 -17.473
LeftHand  -1.37485 -4.82314 15.8412
RightShoulder  1.84165 -1.28943 70.6504
RightArm  28.0955 -5.16493 -7.01603
RightForeArm  9.90232 -3.06932 18.285
RightHand  1.68697 19.6669 7.2436
LeftUpLeg  22.3622 7.95176 4.48358
LeftLeg  2.57732 -10.149 0.650536
LeftFoot  -13.2768 0.12744 2.82179
LeftToes  1.25507e-010 -3.78807e-010 5.71421e-011
495
root  -59.7743 38.1057 103.271 165.867 -67.0227 -178.363
RightUpLeg  -8.82931 -0.586704 1.60369
RightLeg  14.139 -4.26334 -1.37622
RightFoot  0.583962 -0.811454 7.7954
RightToes  5.82063e-011 0 -3.6325e-017
Spine  11.327 1.28005 0.880867
Spine1  -1.45029 2.39454 -6.36212
HEad  12.1535 -26.3774 -3.6279
LeftShoulder1  3.30183 -5.04918 -32.6023
LeftArm  18.7932 -15.2264 -20.0925
LeftForeArm  -8.71385 -7.78328 -17.3606
LeftHand  -1.39935 -4.82279 16.1154
RightShoulder  1.08361 -2.17596 70.1287
RightArm  29.9897 -6.03316 -7.32372
RightForeArm  8.92026 -3.46863 18.59
RightHand  1.74311 19.5941 7.52426
LeftUpLeg  24.3092 8.22732 4.70899
LeftLeg  2.11222 -9.02278 0.661768
LeftFoot  -14.7049 0.164428 2.59196
LeftToes  1.25507e-010 -3.78807e-010 5.71421e-011
